<?xml version="1.0" standalone="no"?>
<!DOCTYPE svg PUBLIC "-//W3C//DTD SVG 20010904//EN"
 "http://www.w3.org/TR/2001/REC-SVG-20010904/DTD/svg10.dtd">
<svg version="1.0" xmlns="http://www.w3.org/2000/svg"
 width="700.000000pt" height="700.000000pt" viewBox="0 0 700.000000 700.000000"
 preserveAspectRatio="xMidYMid meet">
<metadata>
Created by potrace 1.11, written by Peter Selinger 2001-2013
</metadata>
<g transform="translate(0.000000,700.000000) scale(0.100000,-0.100000)"
fill="#000000" stroke="none">
<path d="M4803 6615 c-24 -19 -33 -36 -39 -70 -7 -50 -1 -63 61 -130 62 -68
213 -275 200 -275 -3 0 6 -17 19 -37 46 -70 125 -300 111 -323 -3 -4 -22 -4
-42 0 -61 14 -84 17 -168 26 -44 4 -83 9 -87 10 -5 1 -12 2 -16 3 -5 0 -21 25
-37 54 -199 372 -472 597 -756 623 -119 12 -169 -13 -183 -90 -7 -41 6 -65 76
-147 73 -84 139 -176 189 -264 35 -60 89 -179 89 -195 0 -4 -12 -11 -27 -15
-41 -10 -153 -65 -190 -92 -38 -29 -47 -25 -64 25 -19 61 -84 204 -141 317
-36 69 -151 260 -160 263 -4 2 -8 8 -8 12 0 9 -99 151 -127 182 -26 29 -80 39
-119 23 -56 -23 -68 -53 -70 -179 -2 -126 -11 -235 -24 -286 -5 -19 -12 -53
-16 -75 -16 -104 -93 -258 -169 -342 l-53 -58 -43 33 c-217 162 -483 300 -739
385 -150 50 -341 99 -437 112 -21 3 -47 7 -58 10 -36 7 -120 18 -140 18 -55 0
-69 -5 -96 -34 -23 -25 -29 -40 -29 -76 0 -43 4 -48 78 -121 178 -176 285
-329 340 -487 42 -120 46 -205 18 -338 -19 -91 -5 -115 100 -180 139 -86 222
-169 288 -289 39 -70 74 -187 81 -270 3 -40 8 -88 11 -105 5 -32 42 -83 60
-83 15 0 219 -67 261 -85 95 -42 206 -103 298 -163 118 -78 135 -92 240 -197
l80 -80 -30 -6 c-98 -21 -217 4 -328 68 -34 20 -150 102 -257 181 -107 80
-233 171 -280 202 -227 153 -445 251 -727 329 -70 19 -142 26 -263 25 -135 -1
-250 -22 -370 -69 -306 -118 -569 -338 -851 -710 -95 -126 -247 -378 -255
-425 -11 -63 43 -130 106 -130 15 0 87 29 161 64 260 123 468 175 680 170 161
-3 348 -52 459 -119 74 -44 112 -57 153 -52 22 3 44 13 49 21 12 22 24 20 62
-9 32 -25 33 -27 21 -61 -20 -60 -9 -82 99 -189 158 -157 223 -232 438 -500
240 -299 216 -271 306 -377 39 -48 72 -91 72 -96 0 -9 -19 -54 -187 -442 -64
-146 -118 -268 -122 -272 -6 -7 -30 -12 -111 -22 -25 -3 -64 -8 -87 -11 l-42
-6 -66 96 c-77 110 -95 125 -150 125 -76 0 -126 -69 -101 -141 7 -19 47 -83
89 -142 42 -59 77 -111 77 -115 0 -4 13 -16 28 -27 30 -22 84 -26 192 -12 36
5 76 10 90 12 14 1 45 6 69 10 42 6 46 4 87 -36 24 -24 44 -47 44 -52 0 -4
-12 -19 -27 -33 -26 -23 -33 -24 -111 -19 -46 3 -86 6 -90 6 -78 12 -143 -32
-147 -97 -6 -83 37 -117 160 -128 171 -15 221 -15 247 -3 15 6 82 66 150 132
102 100 170 163 332 310 6 6 56 51 111 100 55 50 109 99 121 110 11 11 35 32
51 46 l30 27 48 -30 c180 -112 433 -201 630 -222 51 -6 68 -19 97 -76 38 -75
106 -171 152 -215 112 -108 268 -152 426 -119 36 8 70 12 76 10 5 -2 52 -70
104 -150 106 -165 123 -185 171 -192 47 -8 85 9 109 48 33 54 21 91 -75 238
-47 72 -86 136 -88 142 -1 5 28 20 66 33 37 13 67 21 67 19 0 -1 15 3 33 11
l34 14 38 -80 c47 -95 70 -119 122 -125 66 -9 123 42 123 110 0 34 -125 282
-156 311 -32 30 -76 32 -149 9 -49 -15 -155 -49 -247 -78 l-48 -15 -14 32
c-44 97 -64 158 -53 162 173 58 369 146 472 213 214 138 379 325 488 554 48
101 117 322 117 374 0 35 -38 89 -70 99 -14 5 -18 13 -14 38 11 81 12 93 13
114 1 15 9 23 30 28 37 8 77 47 84 83 5 29 1 252 -7 339 l-4 51 49 12 c27 7
60 9 73 6 40 -10 61 -87 65 -235 3 -111 12 -137 56 -161 55 -29 124 -5 153 53
16 33 17 193 2 277 -33 184 -142 292 -292 291 -35 0 -79 -5 -98 -11 -19 -5
-36 -10 -36 -10 -2 0 -12 52 -20 100 -3 14 -16 75 -29 137 -14 62 -25 117 -25
122 0 10 19 8 99 -10 24 -5 63 -12 86 -15 24 -3 54 -7 66 -10 53 -13 337 -11
418 2 224 36 386 121 486 256 91 123 124 239 119 413 -3 133 -6 148 -40 256
-114 362 -441 692 -921 931 -133 65 -143 73 -154 107 -6 20 -27 77 -47 126
-220 568 -564 905 -932 914 -56 1 -70 -2 -97 -24z"/>
</g>
</svg>
